<?xml version="1.0" encoding="utf-8"?>
<!-- Generator: Adobe Illustrator 22.0.1, SVG Export Plug-In . SVG Version: 6.00 Build 0)  -->
<svg version="1.1" id="Layer_1" xmlns="http://www.w3.org/2000/svg" xmlns:xlink="http://www.w3.org/1999/xlink" x="0px" y="0px"
	 viewBox="0 0 464 470" style="enable-background:new 0 0 464 470;" xml:space="preserve">
<style type="text/css">
	.st0{fill:#FFFFFF;}
</style>
<title>Asset 1</title>
<g id="Layer_2_1_">
	<g id="Layer_1-2">
		<path class="st0" d="M440.5,181.5c-14-15-176-172-176-172h-67L25.9,176.3c-7.5,7.2-13,16.3-15.9,26.3
			c-3.5,12.6-3.5,29.4,10.5,45.9c28,33,62,9,77-5c12.4-11.5,60.7-59,77.3-75.4c0.9-0.8,2.2-0.8,3.1,0c0.4,0.4,0.6,0.9,0.6,1.5v282.8
			c0,5,4.1,9.1,9.1,9.1c0,0,0,0,0,0h79.8c5,0,9.1-4.1,9.1-9.1c0,0,0,0,0,0V167.8c0-1.2,1-2.2,2.2-2.1c0.6,0,1.1,0.2,1.5,0.6
			l81.8,82.6c9.8,10,22.4,16.8,36.2,19.4c13.2,2.4,29,1.1,42.3-11.7C469.5,228.5,454.5,196.5,440.5,181.5z"/>
	</g>
</g>
</svg>
