<svg id="Layer_1" data-name="Layer 1" xmlns="http://www.w3.org/2000/svg" viewBox="0 0 1106 549.34"><defs><style>.cls-1{fill:#efcd13;}</style></defs><title>Asset1</title><g id="Layer_2" data-name="Layer 2"><g id="Layer_1-2" data-name="Layer 1-2"><polygon class="cls-1" points="581.48 205.82 424.13 478.37 524.8 488.9 719.51 151.66 581.48 205.82"/><polygon class="cls-1" points="0 434 100.47 444.51 137.75 379.95 0 434"/><polygon class="cls-1" points="1106 0 969.75 53.46 707.33 508 807.34 518.46 1105.99 1.19 1106 0"/><polygon class="cls-1" points="387.36 282 282.54 463.56 383.84 474.15 526.25 227.5 387.36 282"/><polygon class="cls-1" points="192.98 358.27 140.76 448.73 242.25 459.34 332.12 303.67 192.98 358.27"/><polygon class="cls-1" points="775.76 129.59 565.83 493.19 666.3 503.7 913.5 75.54 775.76 129.59"/><polygon class="cls-1" points="1105.51 77.38 848.37 522.75 949.17 533.3 1104.33 264.56 1105.51 77.38"/><polygon class="cls-1" points="1103.84 340.76 990.2 537.59 1102.52 549.34 1103.84 340.76"/></g></g></svg>