<?xml version="1.0" encoding="utf-8"?>
<!-- Generator: Adobe Illustrator 22.0.1, SVG Export Plug-In . SVG Version: 6.00 Build 0)  -->
<svg version="1.1" id="Layer_1" xmlns="http://www.w3.org/2000/svg" xmlns:xlink="http://www.w3.org/1999/xlink" x="0px" y="0px"
	 viewBox="0 0 719 549.3" style="enable-background:new 0 0 719 549.3;" xml:space="preserve">
<style type="text/css">
	.st0{fill:#EFCD13;}
</style>
<title>Asset1</title>
<g id="Layer_2_1_">
	<g id="Layer_1-2">
		<polygon class="st0" points="366.4,205.8 209.1,478.4 309.7,488.9 504.5,151.7 		"/>
		<polygon class="st0" points="-215.1,434 -114.6,444.5 -77.3,380 		"/>
		<polygon class="st0" points="890.9,0 754.7,53.5 492.3,508 592.3,518.5 890.9,1.2 		"/>
		<polygon class="st0" points="172.3,282 67.5,463.6 168.8,474.1 311.2,227.5 		"/>
		<polygon class="st0" points="-22.1,358.3 -74.3,448.7 27.2,459.3 117.1,303.7 		"/>
		<polygon class="st0" points="560.7,129.6 350.8,493.2 451.2,503.7 698.4,75.5 		"/>
		<polygon class="st0" points="890.5,77.4 633.3,522.8 734.1,533.3 889.3,264.6 		"/>
		<polygon class="st0" points="888.8,340.8 775.1,537.6 887.5,549.3 		"/>
	</g>
</g>
</svg>
