<?xml version="1.0" encoding="utf-8"?>
<!-- Generator: Adobe Illustrator 22.0.1, SVG Export Plug-In . SVG Version: 6.00 Build 0)  -->
<svg version="1.1" id="Layer_1" xmlns="http://www.w3.org/2000/svg" xmlns:xlink="http://www.w3.org/1999/xlink" x="0px" y="0px"
	 viewBox="0 0 77.8 78.1" style="enable-background:new 0 0 77.8 78.1;" xml:space="preserve">
<style type="text/css">
	.st0{fill:#FFFFFF;}
	.st1{fill:#94D4DE;}
</style>
<title>Asset 7</title>
<g id="Layer_2_1_">
	<g id="Layer_1-2">
		<path class="st0" d="M10.8,11.6h48.7c1.5,0,2.6,1.2,2.6,2.6v49c0,1.5-1.2,2.6-2.6,2.6H10.8c-1.5,0-2.6-1.2-2.6-2.6v-49
			C8.1,12.8,9.3,11.6,10.8,11.6z"/>
		<path class="st1" d="M53.8,20.1c0,0-8.9-1.2-12.2,1c-3.2,2.3-5.4,4.8-4.8,15.3h-7.1v8.3h7.1l0.1,21.1h8.5V44.6h7.1l1.2-8.1
			l-8.3-0.1v-5.8c0,0-0.2-3.4,3.8-3.3l4.6,0V20.1z"/>
	</g>
</g>
</svg>
