<svg id="Layer_1" data-name="Layer 1" xmlns="http://www.w3.org/2000/svg" viewBox="0 0 35.11 34.47"><defs><style>.cls-1{fill:#fff;}</style></defs><title>house</title><path class="cls-1" d="M36.12,30c0-1.35-1.72-3.57-4.07-6,.21-2.23.6-9.59-3.32-9.65-2.57,0-3.31,1.81-3.46,3.47-2.18-1.84-4.19-3.42-5.41-4.37a2,2,0,0,0-2.48,0C13.39,16.55,1.12,26.38,1.12,30c0,0-.89,2.7,4.67,2.56V47.49h8.69S13.8,34,18.62,33.91s4.14,13.58,4.14,13.58h8.69V32.55C37,32.69,36.12,30,36.12,30Z" transform="translate(-1.07 -13.02)"/></svg>