<svg id="Layer_1" data-name="Layer 1" xmlns="http://www.w3.org/2000/svg" viewBox="0 0 126 90"><defs><style>.cls-1{fill:#efcd13}</style></defs><circle class="cls-1" cx="37" cy="29" r="21"/><circle class="cls-1" cx="89" cy="21" r="21"/><path class="cls-1" d="M116 42a23 23 0 0 1-39 0S60 60 59 82c0 0 44 12 74 0 0 0 1-19-17-40z" transform="translate(-7 -5)"/><path class="cls-1" d="M67 53l-3-3a23 23 0 0 1-39 0S8 68 7 90c0 0 44 12 74 0v-2a184 184 0 0 1-25-5c1-12 6-23 11-30z" transform="translate(-7 -5)"/></svg>