<?xml version="1.0" encoding="utf-8"?>
<!-- Generator: Adobe Illustrator 22.0.1, SVG Export Plug-In . SVG Version: 6.00 Build 0)  -->
<svg version="1.1" id="Layer_2" xmlns="http://www.w3.org/2000/svg" xmlns:xlink="http://www.w3.org/1999/xlink" x="0px" y="0px"
	 viewBox="0 0 297.1 517.7" style="enable-background:new 0 0 297.1 517.7;" xml:space="preserve">
<style type="text/css">
	.st0{fill:#EFCD13;}
</style>
<path class="st0" d="M215.2,22.1C195.7,12.4,173.6,7,150.3,7.2c-0.2,0-0.4,0-0.6,0c-0.2,0-0.4,0-0.6,0c-23.3-0.2-45.4,5.2-64.9,14.9
	C22.1,52.8-7.3,125.2,14,191.1c14.8,46,45.1,140.3,135.7,322.6v0c0,0,0,0,0,0c0,0,0,0,0,0v0c90.6-182.3,120.9-276.5,135.7-322.6
	C306.7,125.2,277.3,52.8,215.2,22.1z M149.7,216c-42.9,0-77.7-34.8-77.7-77.7s34.8-77.7,77.7-77.7s77.7,34.8,77.7,77.7
	S192.6,216,149.7,216z"/>
</svg>
