<svg version="1" id="Layer_2" xmlns="http://www.w3.org/2000/svg" viewBox="0 0 94 112"><style>.st2{fill:#efcd13}</style><circle cx="47" cy="64" r="41" fill="none" stroke="#efcd13" stroke-width="6" stroke-miterlimit="10"/><path fill="none" stroke="#efcd13" stroke-width="6" stroke-miterlimit="10" d="M31 58l16 8 17-24"/><path class="st2" d="M75 24l-8-3c-1-1-2-3-1-4l2-3c0-1 2-2 3-1l8 3c1 1 2 3 1 4l-2 3c0 2-2 2-3 1zM53 4H42c-2 0-3 1-3 2v6c0 1 1 2 3 2h1v1l2 2h5l1-2v-1h2l3-2V6l-3-2zM47 30l-1-1v-3l1-2 2 2v3l-2 1zM47 104l-1-2v-3l1-2 2 2v3l-2 2zM81 64l2-2h3l1 2-1 2h-3l-2-2zM8 64l1-2h3l2 2-2 2H9l-1-2z"/></svg>