<?xml version="1.0" encoding="utf-8"?>
<!-- Generator: Adobe Illustrator 22.0.1, SVG Export Plug-In . SVG Version: 6.00 Build 0)  -->
<svg version="1.1" id="Layer_2" xmlns="http://www.w3.org/2000/svg" xmlns:xlink="http://www.w3.org/1999/xlink" x="0px" y="0px"
	 viewBox="0 0 93.5 111.9" style="enable-background:new 0 0 93.5 111.9;" xml:space="preserve">
<style type="text/css">
	.st0{fill:none;stroke:#EFCD13;stroke-width:6.1713;stroke-miterlimit:10;enable-background:new    ;}
	.st1{opacity:0.92;fill:none;stroke:#EFCD13;stroke-width:6.1713;stroke-miterlimit:10;enable-background:new    ;}
	.st2{fill:#EFCD13;}
</style>
<circle class="st0" cx="47.3" cy="63.9" r="41.3"/>
<polyline class="st1" points="30.9,58.4 47.1,66.4 64.3,41.7 "/>
<path class="st2" d="M74.7,24.4l-7.4-3.6c-1.3-0.7-1.9-2.3-1.3-3.7l1.5-3.1c0.7-1.3,2.3-1.9,3.7-1.3l7.4,3.6
	c1.3,0.7,1.9,2.3,1.3,3.7l-1.5,3.1C77.7,24.5,76,25.1,74.7,24.4z"/>
<path class="st2" d="M52.9,3.7h-11c-1.5,0-2.7,1.2-2.7,2.7v5.3c0,1.5,1.2,2.7,2.7,2.7h1.5v0.8c0,0.8,0.7,1.5,1.5,1.5h5
	c0.8,0,1.5-0.7,1.5-1.5v-0.8h1.5c1.5,0,2.7-1.2,2.7-2.7V6.4C55.6,4.9,54.4,3.7,52.9,3.7z"/>
<path class="st2" d="M47.3,30.3L47.3,30.3c-0.9,0-1.7-0.8-1.7-1.7v-2.9c0-0.9,0.8-1.7,1.7-1.7l0,0c0.9,0,1.7,0.8,1.7,1.7v2.9
	C49,29.5,48.3,30.3,47.3,30.3z"/>
<path class="st2" d="M47.3,103.7L47.3,103.7c-0.9,0-1.7-0.8-1.7-1.7v-2.9c0-0.9,0.8-1.7,1.7-1.7l0,0c0.9,0,1.7,0.8,1.7,1.7v2.9
	C49,102.9,48.3,103.7,47.3,103.7z"/>
<path class="st2" d="M80.9,63.9L80.9,63.9c0-0.9,0.8-1.7,1.7-1.7h2.9c0.9,0,1.7,0.8,1.7,1.7l0,0c0,0.9-0.8,1.7-1.7,1.7h-2.9
	C81.7,65.6,80.9,64.8,80.9,63.9z"/>
<path class="st2" d="M7.6,63.9L7.6,63.9c0-0.9,0.8-1.7,1.7-1.7h2.9c0.9,0,1.7,0.8,1.7,1.7l0,0c0,0.9-0.8,1.7-1.7,1.7H9.2
	C8.3,65.6,7.6,64.8,7.6,63.9z"/>
</svg>
