<svg id="Layer_1" data-name="Layer 1" xmlns="http://www.w3.org/2000/svg" viewBox="0 0 126.01 89.83"><defs><style>.cls-1{fill:#efcd13;}</style></defs><title>icon_organisator</title><circle class="cls-1" cx="37" cy="28.5" r="20.5"/><circle class="cls-1" cx="89" cy="20.5" r="20.5"/><path class="cls-1" d="M116,41.58h-.2a23,23,0,0,1-38.6,0H77s-17,18-18,40c0,0,44,12,74,0C133,81.58,134,62.58,116,41.58Z" transform="translate(-7.01 -5.08)"/><path class="cls-1" d="M66.56,52.71c-.81-1-1.65-2.08-2.55-3.13h-.2a23,23,0,0,1-38.6,0H25s-17,18-18,40c0,0,44,12,74,0,0,0,0-.72,0-2a184.18,184.18,0,0,1-24.6-4.48C56.92,71.21,61.84,60.44,66.56,52.71Z" transform="translate(-7.01 -5.08)"/></svg>