<svg xmlns="http://www.w3.org/2000/svg" viewBox="0 0 225 225"><defs><style>.cls-1{fill:#fff;}</style></defs><title>Asset 7</title><g id="Layer_2" data-name="Layer 2"><g id="Layer_1-2" data-name="Layer 1"><path class="cls-1" d="M160.9,22A42.15,42.15,0,0,1,203,64.1v96.8A42.15,42.15,0,0,1,160.9,203H64.1A42.15,42.15,0,0,1,22,160.9V64.1A42.15,42.15,0,0,1,64.1,22h96.8m0-22H64.1A64.1,64.1,0,0,0,0,64.1v96.8A64.1,64.1,0,0,0,64.1,225h96.8A64.1,64.1,0,0,0,225,160.9V64.1A64.1,64.1,0,0,0,160.9,0Z"/><path class="cls-1" d="M112,77a36,36,0,1,1-36,36,36,36,0,0,1,36-36m0-22a58,58,0,1,0,58,58,58,58,0,0,0-58-58Z"/><ellipse class="cls-1" cx="172.5" cy="52" rx="13.5" ry="13"/></g></g></svg>