<svg xmlns="http://www.w3.org/2000/svg" viewBox="0 0 225 225"><defs><style>.cls-1{fill:#fff}</style></defs><g id="Layer_2" data-name="Layer 2"><g id="Layer_1-2" data-name="Layer 1"><path class="cls-1" d="M161 22a42 42 0 0 1 42 42v97a42 42 0 0 1-42 42H64a42 42 0 0 1-42-42V64a42 42 0 0 1 42-42h97m0-22H64A64 64 0 0 0 0 64v97a64 64 0 0 0 64 64h97a64 64 0 0 0 64-64V64a64 64 0 0 0-64-64z"/><path class="cls-1" d="M112 77a36 36 0 1 1-36 36 36 36 0 0 1 36-36m0-22a58 58 0 1 0 58 58 58 58 0 0 0-58-58z"/><ellipse class="cls-1" cx="173" cy="52" rx="14" ry="13"/></g></g></svg>